<mxfile host="app.diagrams.net" modified="2023-06-05T02:51:46.371Z" agent="Mozilla/5.0 (Macintosh; Intel Mac OS X 10_15_7) AppleWebKit/537.36 (KHTML, like Gecko) Chrome/114.0.0.0 Safari/537.36" etag="U2kN2--2wZPLi5XvIJY8" version="21.1.5" type="github">
  <diagram name="第 1 页" id="426NhQxwx-dDoAMTU1OL">
    <mxGraphModel dx="1631" dy="750" grid="1" gridSize="10" guides="1" tooltips="1" connect="1" arrows="1" fold="1" page="1" pageScale="1" pageWidth="827" pageHeight="1169" math="0" shadow="0">
      <root>
        <mxCell id="0" />
        <mxCell id="1" parent="0" />
        <mxCell id="N5lV2D2xA5dcwzt4dY45-3" value="" style="rounded=1;whiteSpace=wrap;html=1;" vertex="1" parent="1">
          <mxGeometry x="100" y="130" width="120" height="60" as="geometry" />
        </mxCell>
        <mxCell id="N5lV2D2xA5dcwzt4dY45-4" value="" style="endArrow=none;html=1;rounded=0;entryX=0.5;entryY=0;entryDx=0;entryDy=0;exitX=0.5;exitY=1;exitDx=0;exitDy=0;" edge="1" parent="1" source="N5lV2D2xA5dcwzt4dY45-3" target="N5lV2D2xA5dcwzt4dY45-3">
          <mxGeometry width="50" height="50" relative="1" as="geometry">
            <mxPoint x="70" y="200" as="sourcePoint" />
            <mxPoint x="120" y="150" as="targetPoint" />
          </mxGeometry>
        </mxCell>
        <mxCell id="N5lV2D2xA5dcwzt4dY45-7" style="edgeStyle=orthogonalEdgeStyle;rounded=0;orthogonalLoop=1;jettySize=auto;html=1;" edge="1" parent="1">
          <mxGeometry relative="1" as="geometry">
            <mxPoint x="130" y="190" as="sourcePoint" />
            <mxPoint x="160" y="190" as="targetPoint" />
            <Array as="points">
              <mxPoint x="130" y="220" />
              <mxPoint x="160" y="220" />
            </Array>
          </mxGeometry>
        </mxCell>
        <mxCell id="N5lV2D2xA5dcwzt4dY45-5" value="Prev" style="text;html=1;strokeColor=none;fillColor=none;align=center;verticalAlign=middle;whiteSpace=wrap;rounded=0;" vertex="1" parent="1">
          <mxGeometry x="100" y="145" width="60" height="35" as="geometry" />
        </mxCell>
        <mxCell id="N5lV2D2xA5dcwzt4dY45-8" style="edgeStyle=orthogonalEdgeStyle;rounded=0;orthogonalLoop=1;jettySize=auto;html=1;exitX=0.75;exitY=0;exitDx=0;exitDy=0;" edge="1" parent="1" source="N5lV2D2xA5dcwzt4dY45-3">
          <mxGeometry relative="1" as="geometry">
            <mxPoint x="190" y="145" as="sourcePoint" />
            <mxPoint x="160" y="130" as="targetPoint" />
            <Array as="points">
              <mxPoint x="190" y="100" />
              <mxPoint x="160" y="100" />
            </Array>
          </mxGeometry>
        </mxCell>
        <mxCell id="N5lV2D2xA5dcwzt4dY45-6" value="Next" style="text;html=1;strokeColor=none;fillColor=none;align=center;verticalAlign=middle;whiteSpace=wrap;rounded=0;" vertex="1" parent="1">
          <mxGeometry x="160" y="145" width="60" height="30" as="geometry" />
        </mxCell>
        <mxCell id="N5lV2D2xA5dcwzt4dY45-10" value="" style="rounded=1;whiteSpace=wrap;html=1;" vertex="1" parent="1">
          <mxGeometry x="94" y="270" width="120" height="60" as="geometry" />
        </mxCell>
        <mxCell id="N5lV2D2xA5dcwzt4dY45-11" value="" style="endArrow=none;html=1;rounded=0;entryX=0.5;entryY=0;entryDx=0;entryDy=0;exitX=0.5;exitY=1;exitDx=0;exitDy=0;" edge="1" parent="1" source="N5lV2D2xA5dcwzt4dY45-10" target="N5lV2D2xA5dcwzt4dY45-10">
          <mxGeometry width="50" height="50" relative="1" as="geometry">
            <mxPoint x="64" y="340" as="sourcePoint" />
            <mxPoint x="114" y="290" as="targetPoint" />
          </mxGeometry>
        </mxCell>
        <mxCell id="N5lV2D2xA5dcwzt4dY45-12" style="edgeStyle=orthogonalEdgeStyle;rounded=0;orthogonalLoop=1;jettySize=auto;html=1;entryX=0.5;entryY=1;entryDx=0;entryDy=0;" edge="1" parent="1" target="N5lV2D2xA5dcwzt4dY45-17">
          <mxGeometry relative="1" as="geometry">
            <mxPoint x="124" y="330" as="sourcePoint" />
            <Array as="points">
              <mxPoint x="124" y="360" />
              <mxPoint x="354" y="360" />
            </Array>
            <mxPoint x="264" y="390" as="targetPoint" />
          </mxGeometry>
        </mxCell>
        <mxCell id="N5lV2D2xA5dcwzt4dY45-13" value="Prev" style="text;html=1;strokeColor=none;fillColor=none;align=center;verticalAlign=middle;whiteSpace=wrap;rounded=0;" vertex="1" parent="1">
          <mxGeometry x="94" y="285" width="60" height="35" as="geometry" />
        </mxCell>
        <mxCell id="N5lV2D2xA5dcwzt4dY45-23" value="" style="edgeStyle=orthogonalEdgeStyle;rounded=0;orthogonalLoop=1;jettySize=auto;html=1;" edge="1" parent="1" source="N5lV2D2xA5dcwzt4dY45-15" target="N5lV2D2xA5dcwzt4dY45-20">
          <mxGeometry relative="1" as="geometry">
            <Array as="points">
              <mxPoint x="254" y="310" />
              <mxPoint x="254" y="310" />
            </Array>
          </mxGeometry>
        </mxCell>
        <mxCell id="N5lV2D2xA5dcwzt4dY45-15" value="Next" style="text;html=1;strokeColor=none;fillColor=none;align=center;verticalAlign=middle;whiteSpace=wrap;rounded=0;" vertex="1" parent="1">
          <mxGeometry x="154" y="285" width="60" height="30" as="geometry" />
        </mxCell>
        <mxCell id="N5lV2D2xA5dcwzt4dY45-24" style="edgeStyle=orthogonalEdgeStyle;rounded=0;orthogonalLoop=1;jettySize=auto;html=1;entryX=1;entryY=0.25;entryDx=0;entryDy=0;" edge="1" parent="1" source="N5lV2D2xA5dcwzt4dY45-17" target="N5lV2D2xA5dcwzt4dY45-15">
          <mxGeometry relative="1" as="geometry">
            <Array as="points">
              <mxPoint x="254" y="293" />
            </Array>
          </mxGeometry>
        </mxCell>
        <mxCell id="N5lV2D2xA5dcwzt4dY45-17" value="" style="rounded=1;whiteSpace=wrap;html=1;" vertex="1" parent="1">
          <mxGeometry x="294" y="272.5" width="120" height="60" as="geometry" />
        </mxCell>
        <mxCell id="N5lV2D2xA5dcwzt4dY45-18" value="" style="endArrow=none;html=1;rounded=0;entryX=0.5;entryY=0;entryDx=0;entryDy=0;exitX=0.5;exitY=1;exitDx=0;exitDy=0;" edge="1" parent="1" source="N5lV2D2xA5dcwzt4dY45-17" target="N5lV2D2xA5dcwzt4dY45-17">
          <mxGeometry width="50" height="50" relative="1" as="geometry">
            <mxPoint x="264" y="342.5" as="sourcePoint" />
            <mxPoint x="314" y="292.5" as="targetPoint" />
          </mxGeometry>
        </mxCell>
        <mxCell id="N5lV2D2xA5dcwzt4dY45-20" value="Prev" style="text;html=1;strokeColor=none;fillColor=none;align=center;verticalAlign=middle;whiteSpace=wrap;rounded=0;" vertex="1" parent="1">
          <mxGeometry x="294" y="287.5" width="60" height="35" as="geometry" />
        </mxCell>
        <mxCell id="N5lV2D2xA5dcwzt4dY45-21" style="edgeStyle=orthogonalEdgeStyle;rounded=0;orthogonalLoop=1;jettySize=auto;html=1;exitX=0.75;exitY=0;exitDx=0;exitDy=0;" edge="1" parent="1" source="N5lV2D2xA5dcwzt4dY45-17">
          <mxGeometry relative="1" as="geometry">
            <mxPoint x="384" y="287.5" as="sourcePoint" />
            <Array as="points">
              <mxPoint x="384" y="243" />
              <mxPoint x="154" y="243" />
            </Array>
            <mxPoint x="154" y="270" as="targetPoint" />
          </mxGeometry>
        </mxCell>
        <mxCell id="N5lV2D2xA5dcwzt4dY45-22" value="Next" style="text;html=1;strokeColor=none;fillColor=none;align=center;verticalAlign=middle;whiteSpace=wrap;rounded=0;" vertex="1" parent="1">
          <mxGeometry x="354" y="287.5" width="60" height="30" as="geometry" />
        </mxCell>
        <mxCell id="N5lV2D2xA5dcwzt4dY45-31" value="" style="rounded=1;whiteSpace=wrap;html=1;" vertex="1" parent="1">
          <mxGeometry x="80" y="412" width="120" height="60" as="geometry" />
        </mxCell>
        <mxCell id="N5lV2D2xA5dcwzt4dY45-32" value="" style="endArrow=none;html=1;rounded=0;entryX=0.5;entryY=0;entryDx=0;entryDy=0;exitX=0.5;exitY=1;exitDx=0;exitDy=0;" edge="1" parent="1" source="N5lV2D2xA5dcwzt4dY45-31" target="N5lV2D2xA5dcwzt4dY45-31">
          <mxGeometry width="50" height="50" relative="1" as="geometry">
            <mxPoint x="50" y="482" as="sourcePoint" />
            <mxPoint x="100" y="432" as="targetPoint" />
          </mxGeometry>
        </mxCell>
        <mxCell id="N5lV2D2xA5dcwzt4dY45-33" style="edgeStyle=orthogonalEdgeStyle;rounded=0;orthogonalLoop=1;jettySize=auto;html=1;entryX=0.5;entryY=1;entryDx=0;entryDy=0;" edge="1" parent="1" target="N5lV2D2xA5dcwzt4dY45-43">
          <mxGeometry relative="1" as="geometry">
            <mxPoint x="110" y="472" as="sourcePoint" />
            <Array as="points">
              <mxPoint x="110" y="502" />
              <mxPoint x="540" y="502" />
            </Array>
            <mxPoint x="340" y="480" as="targetPoint" />
          </mxGeometry>
        </mxCell>
        <mxCell id="N5lV2D2xA5dcwzt4dY45-34" value="Prev" style="text;html=1;strokeColor=none;fillColor=none;align=center;verticalAlign=middle;whiteSpace=wrap;rounded=0;" vertex="1" parent="1">
          <mxGeometry x="80" y="427" width="60" height="35" as="geometry" />
        </mxCell>
        <mxCell id="N5lV2D2xA5dcwzt4dY45-35" value="" style="edgeStyle=orthogonalEdgeStyle;rounded=0;orthogonalLoop=1;jettySize=auto;html=1;" edge="1" parent="1" source="N5lV2D2xA5dcwzt4dY45-36" target="N5lV2D2xA5dcwzt4dY45-40">
          <mxGeometry relative="1" as="geometry">
            <Array as="points">
              <mxPoint x="240" y="452" />
              <mxPoint x="240" y="452" />
            </Array>
          </mxGeometry>
        </mxCell>
        <mxCell id="N5lV2D2xA5dcwzt4dY45-36" value="Next" style="text;html=1;strokeColor=none;fillColor=none;align=center;verticalAlign=middle;whiteSpace=wrap;rounded=0;" vertex="1" parent="1">
          <mxGeometry x="140" y="427" width="60" height="30" as="geometry" />
        </mxCell>
        <mxCell id="N5lV2D2xA5dcwzt4dY45-37" style="edgeStyle=orthogonalEdgeStyle;rounded=0;orthogonalLoop=1;jettySize=auto;html=1;entryX=1;entryY=0.25;entryDx=0;entryDy=0;" edge="1" parent="1" source="N5lV2D2xA5dcwzt4dY45-38" target="N5lV2D2xA5dcwzt4dY45-36">
          <mxGeometry relative="1" as="geometry">
            <Array as="points">
              <mxPoint x="240" y="435" />
            </Array>
          </mxGeometry>
        </mxCell>
        <mxCell id="N5lV2D2xA5dcwzt4dY45-38" value="" style="rounded=1;whiteSpace=wrap;html=1;" vertex="1" parent="1">
          <mxGeometry x="280" y="414.5" width="120" height="60" as="geometry" />
        </mxCell>
        <mxCell id="N5lV2D2xA5dcwzt4dY45-39" value="" style="endArrow=none;html=1;rounded=0;entryX=0.5;entryY=0;entryDx=0;entryDy=0;exitX=0.5;exitY=1;exitDx=0;exitDy=0;" edge="1" parent="1" source="N5lV2D2xA5dcwzt4dY45-38" target="N5lV2D2xA5dcwzt4dY45-38">
          <mxGeometry width="50" height="50" relative="1" as="geometry">
            <mxPoint x="250" y="484.5" as="sourcePoint" />
            <mxPoint x="300" y="434.5" as="targetPoint" />
          </mxGeometry>
        </mxCell>
        <mxCell id="N5lV2D2xA5dcwzt4dY45-40" value="Prev" style="text;html=1;strokeColor=none;fillColor=none;align=center;verticalAlign=middle;whiteSpace=wrap;rounded=0;" vertex="1" parent="1">
          <mxGeometry x="280" y="429.5" width="60" height="35" as="geometry" />
        </mxCell>
        <mxCell id="N5lV2D2xA5dcwzt4dY45-47" value="" style="edgeStyle=orthogonalEdgeStyle;rounded=0;orthogonalLoop=1;jettySize=auto;html=1;" edge="1" parent="1" source="N5lV2D2xA5dcwzt4dY45-42" target="N5lV2D2xA5dcwzt4dY45-45">
          <mxGeometry relative="1" as="geometry">
            <Array as="points">
              <mxPoint x="430" y="450" />
              <mxPoint x="430" y="450" />
            </Array>
          </mxGeometry>
        </mxCell>
        <mxCell id="N5lV2D2xA5dcwzt4dY45-42" value="Next" style="text;html=1;strokeColor=none;fillColor=none;align=center;verticalAlign=middle;whiteSpace=wrap;rounded=0;" vertex="1" parent="1">
          <mxGeometry x="340" y="429.5" width="60" height="30" as="geometry" />
        </mxCell>
        <mxCell id="N5lV2D2xA5dcwzt4dY45-48" style="edgeStyle=orthogonalEdgeStyle;rounded=0;orthogonalLoop=1;jettySize=auto;html=1;" edge="1" parent="1" source="N5lV2D2xA5dcwzt4dY45-43">
          <mxGeometry relative="1" as="geometry">
            <mxPoint x="140" y="410" as="targetPoint" />
            <Array as="points">
              <mxPoint x="570" y="380" />
              <mxPoint x="140" y="380" />
            </Array>
          </mxGeometry>
        </mxCell>
        <mxCell id="N5lV2D2xA5dcwzt4dY45-43" value="" style="rounded=1;whiteSpace=wrap;html=1;" vertex="1" parent="1">
          <mxGeometry x="480" y="412" width="120" height="60" as="geometry" />
        </mxCell>
        <mxCell id="N5lV2D2xA5dcwzt4dY45-44" value="" style="endArrow=none;html=1;rounded=0;entryX=0.5;entryY=0;entryDx=0;entryDy=0;exitX=0.5;exitY=1;exitDx=0;exitDy=0;" edge="1" parent="1" source="N5lV2D2xA5dcwzt4dY45-43" target="N5lV2D2xA5dcwzt4dY45-43">
          <mxGeometry width="50" height="50" relative="1" as="geometry">
            <mxPoint x="450" y="482" as="sourcePoint" />
            <mxPoint x="500" y="432" as="targetPoint" />
          </mxGeometry>
        </mxCell>
        <mxCell id="N5lV2D2xA5dcwzt4dY45-49" style="edgeStyle=orthogonalEdgeStyle;rounded=0;orthogonalLoop=1;jettySize=auto;html=1;" edge="1" parent="1" source="N5lV2D2xA5dcwzt4dY45-45">
          <mxGeometry relative="1" as="geometry">
            <mxPoint x="400" y="430" as="targetPoint" />
            <Array as="points">
              <mxPoint x="400" y="430" />
            </Array>
          </mxGeometry>
        </mxCell>
        <mxCell id="N5lV2D2xA5dcwzt4dY45-45" value="Prev" style="text;html=1;strokeColor=none;fillColor=none;align=center;verticalAlign=middle;whiteSpace=wrap;rounded=0;" vertex="1" parent="1">
          <mxGeometry x="480" y="427" width="60" height="35" as="geometry" />
        </mxCell>
        <mxCell id="N5lV2D2xA5dcwzt4dY45-46" value="Next" style="text;html=1;strokeColor=none;fillColor=none;align=center;verticalAlign=middle;whiteSpace=wrap;rounded=0;" vertex="1" parent="1">
          <mxGeometry x="540" y="427" width="60" height="30" as="geometry" />
        </mxCell>
        <mxCell id="N5lV2D2xA5dcwzt4dY45-50" value="" style="rounded=1;whiteSpace=wrap;html=1;" vertex="1" parent="1">
          <mxGeometry x="80" y="556" width="120" height="60" as="geometry" />
        </mxCell>
        <mxCell id="N5lV2D2xA5dcwzt4dY45-51" value="" style="endArrow=none;html=1;rounded=0;entryX=0.5;entryY=0;entryDx=0;entryDy=0;exitX=0.5;exitY=1;exitDx=0;exitDy=0;" edge="1" parent="1" source="N5lV2D2xA5dcwzt4dY45-50" target="N5lV2D2xA5dcwzt4dY45-50">
          <mxGeometry width="50" height="50" relative="1" as="geometry">
            <mxPoint x="50" y="626" as="sourcePoint" />
            <mxPoint x="100" y="576" as="targetPoint" />
          </mxGeometry>
        </mxCell>
        <mxCell id="N5lV2D2xA5dcwzt4dY45-52" style="edgeStyle=orthogonalEdgeStyle;rounded=0;orthogonalLoop=1;jettySize=auto;html=1;" edge="1" parent="1">
          <mxGeometry relative="1" as="geometry">
            <mxPoint x="110" y="616" as="sourcePoint" />
            <Array as="points">
              <mxPoint x="110" y="646" />
              <mxPoint x="740" y="646" />
            </Array>
            <mxPoint x="740" y="616" as="targetPoint" />
          </mxGeometry>
        </mxCell>
        <mxCell id="N5lV2D2xA5dcwzt4dY45-53" value="Prev" style="text;html=1;strokeColor=none;fillColor=none;align=center;verticalAlign=middle;whiteSpace=wrap;rounded=0;" vertex="1" parent="1">
          <mxGeometry x="80" y="571" width="60" height="35" as="geometry" />
        </mxCell>
        <mxCell id="N5lV2D2xA5dcwzt4dY45-54" value="" style="edgeStyle=orthogonalEdgeStyle;rounded=0;orthogonalLoop=1;jettySize=auto;html=1;" edge="1" parent="1" source="N5lV2D2xA5dcwzt4dY45-55" target="N5lV2D2xA5dcwzt4dY45-59">
          <mxGeometry relative="1" as="geometry">
            <Array as="points">
              <mxPoint x="240" y="596" />
              <mxPoint x="240" y="596" />
            </Array>
          </mxGeometry>
        </mxCell>
        <mxCell id="N5lV2D2xA5dcwzt4dY45-55" value="Next" style="text;html=1;strokeColor=none;fillColor=none;align=center;verticalAlign=middle;whiteSpace=wrap;rounded=0;" vertex="1" parent="1">
          <mxGeometry x="140" y="571" width="60" height="30" as="geometry" />
        </mxCell>
        <mxCell id="N5lV2D2xA5dcwzt4dY45-56" style="edgeStyle=orthogonalEdgeStyle;rounded=0;orthogonalLoop=1;jettySize=auto;html=1;entryX=1;entryY=0.25;entryDx=0;entryDy=0;" edge="1" parent="1" source="N5lV2D2xA5dcwzt4dY45-57" target="N5lV2D2xA5dcwzt4dY45-55">
          <mxGeometry relative="1" as="geometry">
            <Array as="points">
              <mxPoint x="240" y="579" />
            </Array>
          </mxGeometry>
        </mxCell>
        <mxCell id="N5lV2D2xA5dcwzt4dY45-57" value="" style="rounded=1;whiteSpace=wrap;html=1;" vertex="1" parent="1">
          <mxGeometry x="280" y="558.5" width="120" height="60" as="geometry" />
        </mxCell>
        <mxCell id="N5lV2D2xA5dcwzt4dY45-58" value="" style="endArrow=none;html=1;rounded=0;entryX=0.5;entryY=0;entryDx=0;entryDy=0;exitX=0.5;exitY=1;exitDx=0;exitDy=0;" edge="1" parent="1" source="N5lV2D2xA5dcwzt4dY45-57" target="N5lV2D2xA5dcwzt4dY45-57">
          <mxGeometry width="50" height="50" relative="1" as="geometry">
            <mxPoint x="250" y="628.5" as="sourcePoint" />
            <mxPoint x="300" y="578.5" as="targetPoint" />
          </mxGeometry>
        </mxCell>
        <mxCell id="N5lV2D2xA5dcwzt4dY45-59" value="Prev" style="text;html=1;strokeColor=none;fillColor=none;align=center;verticalAlign=middle;whiteSpace=wrap;rounded=0;" vertex="1" parent="1">
          <mxGeometry x="280" y="573.5" width="60" height="35" as="geometry" />
        </mxCell>
        <mxCell id="N5lV2D2xA5dcwzt4dY45-60" value="" style="edgeStyle=orthogonalEdgeStyle;rounded=0;orthogonalLoop=1;jettySize=auto;html=1;" edge="1" parent="1" source="N5lV2D2xA5dcwzt4dY45-61" target="N5lV2D2xA5dcwzt4dY45-66">
          <mxGeometry relative="1" as="geometry">
            <Array as="points">
              <mxPoint x="440" y="594" />
              <mxPoint x="440" y="594" />
            </Array>
          </mxGeometry>
        </mxCell>
        <mxCell id="N5lV2D2xA5dcwzt4dY45-61" value="Next" style="text;html=1;strokeColor=none;fillColor=none;align=center;verticalAlign=middle;whiteSpace=wrap;rounded=0;" vertex="1" parent="1">
          <mxGeometry x="340" y="573.5" width="60" height="30" as="geometry" />
        </mxCell>
        <mxCell id="N5lV2D2xA5dcwzt4dY45-63" value="" style="rounded=1;whiteSpace=wrap;html=1;" vertex="1" parent="1">
          <mxGeometry x="480" y="556" width="120" height="60" as="geometry" />
        </mxCell>
        <mxCell id="N5lV2D2xA5dcwzt4dY45-64" value="" style="endArrow=none;html=1;rounded=0;entryX=0.5;entryY=0;entryDx=0;entryDy=0;exitX=0.5;exitY=1;exitDx=0;exitDy=0;" edge="1" parent="1" source="N5lV2D2xA5dcwzt4dY45-63" target="N5lV2D2xA5dcwzt4dY45-63">
          <mxGeometry width="50" height="50" relative="1" as="geometry">
            <mxPoint x="450" y="626" as="sourcePoint" />
            <mxPoint x="500" y="576" as="targetPoint" />
          </mxGeometry>
        </mxCell>
        <mxCell id="N5lV2D2xA5dcwzt4dY45-65" style="edgeStyle=orthogonalEdgeStyle;rounded=0;orthogonalLoop=1;jettySize=auto;html=1;" edge="1" parent="1" source="N5lV2D2xA5dcwzt4dY45-66">
          <mxGeometry relative="1" as="geometry">
            <Array as="points">
              <mxPoint x="400" y="574" />
            </Array>
            <mxPoint x="400" y="574" as="targetPoint" />
          </mxGeometry>
        </mxCell>
        <mxCell id="N5lV2D2xA5dcwzt4dY45-66" value="Prev" style="text;html=1;strokeColor=none;fillColor=none;align=center;verticalAlign=middle;whiteSpace=wrap;rounded=0;" vertex="1" parent="1">
          <mxGeometry x="480" y="571" width="60" height="35" as="geometry" />
        </mxCell>
        <mxCell id="N5lV2D2xA5dcwzt4dY45-72" value="" style="edgeStyle=orthogonalEdgeStyle;rounded=0;orthogonalLoop=1;jettySize=auto;html=1;" edge="1" parent="1" source="N5lV2D2xA5dcwzt4dY45-67" target="N5lV2D2xA5dcwzt4dY45-70">
          <mxGeometry relative="1" as="geometry">
            <Array as="points">
              <mxPoint x="660" y="594" />
              <mxPoint x="660" y="594" />
            </Array>
          </mxGeometry>
        </mxCell>
        <mxCell id="N5lV2D2xA5dcwzt4dY45-67" value="Next" style="text;html=1;strokeColor=none;fillColor=none;align=center;verticalAlign=middle;whiteSpace=wrap;rounded=0;" vertex="1" parent="1">
          <mxGeometry x="540" y="571" width="60" height="30" as="geometry" />
        </mxCell>
        <mxCell id="N5lV2D2xA5dcwzt4dY45-73" style="edgeStyle=orthogonalEdgeStyle;rounded=0;orthogonalLoop=1;jettySize=auto;html=1;" edge="1" parent="1" source="N5lV2D2xA5dcwzt4dY45-68">
          <mxGeometry relative="1" as="geometry">
            <mxPoint x="140" y="554" as="targetPoint" />
            <Array as="points">
              <mxPoint x="770" y="524" />
              <mxPoint x="140" y="524" />
            </Array>
          </mxGeometry>
        </mxCell>
        <mxCell id="N5lV2D2xA5dcwzt4dY45-68" value="" style="rounded=1;whiteSpace=wrap;html=1;" vertex="1" parent="1">
          <mxGeometry x="680" y="556" width="120" height="60" as="geometry" />
        </mxCell>
        <mxCell id="N5lV2D2xA5dcwzt4dY45-69" value="" style="endArrow=none;html=1;rounded=0;entryX=0.5;entryY=0;entryDx=0;entryDy=0;exitX=0.5;exitY=1;exitDx=0;exitDy=0;" edge="1" parent="1" source="N5lV2D2xA5dcwzt4dY45-68" target="N5lV2D2xA5dcwzt4dY45-68">
          <mxGeometry width="50" height="50" relative="1" as="geometry">
            <mxPoint x="650" y="626" as="sourcePoint" />
            <mxPoint x="700" y="576" as="targetPoint" />
          </mxGeometry>
        </mxCell>
        <mxCell id="N5lV2D2xA5dcwzt4dY45-74" value="" style="edgeStyle=orthogonalEdgeStyle;rounded=0;orthogonalLoop=1;jettySize=auto;html=1;" edge="1" parent="1" source="N5lV2D2xA5dcwzt4dY45-70" target="N5lV2D2xA5dcwzt4dY45-67">
          <mxGeometry relative="1" as="geometry">
            <Array as="points">
              <mxPoint x="620" y="574" />
              <mxPoint x="620" y="574" />
            </Array>
          </mxGeometry>
        </mxCell>
        <mxCell id="N5lV2D2xA5dcwzt4dY45-70" value="Prev" style="text;html=1;strokeColor=none;fillColor=none;align=center;verticalAlign=middle;whiteSpace=wrap;rounded=0;" vertex="1" parent="1">
          <mxGeometry x="680" y="571" width="60" height="35" as="geometry" />
        </mxCell>
        <mxCell id="N5lV2D2xA5dcwzt4dY45-71" value="Next" style="text;html=1;strokeColor=none;fillColor=none;align=center;verticalAlign=middle;whiteSpace=wrap;rounded=0;" vertex="1" parent="1">
          <mxGeometry x="740" y="571" width="60" height="30" as="geometry" />
        </mxCell>
        <mxCell id="N5lV2D2xA5dcwzt4dY45-75" value="item" style="text;html=1;strokeColor=#6c8ebf;fillColor=#dae8fc;align=center;verticalAlign=middle;whiteSpace=wrap;rounded=0;" vertex="1" parent="1">
          <mxGeometry x="324" y="243" width="60" height="30" as="geometry" />
        </mxCell>
        <mxCell id="N5lV2D2xA5dcwzt4dY45-76" value="item" style="text;html=1;strokeColor=#6c8ebf;fillColor=#dae8fc;align=center;verticalAlign=middle;whiteSpace=wrap;rounded=0;" vertex="1" parent="1">
          <mxGeometry x="510" y="382" width="60" height="30" as="geometry" />
        </mxCell>
        <mxCell id="N5lV2D2xA5dcwzt4dY45-77" value="item" style="text;html=1;strokeColor=#6c8ebf;fillColor=#dae8fc;align=center;verticalAlign=middle;whiteSpace=wrap;rounded=0;" vertex="1" parent="1">
          <mxGeometry x="710" y="526" width="60" height="30" as="geometry" />
        </mxCell>
        <mxCell id="N5lV2D2xA5dcwzt4dY45-78" value="LinkList" style="text;html=1;align=center;verticalAlign=middle;whiteSpace=wrap;rounded=0;" vertex="1" parent="1">
          <mxGeometry x="100" y="100" width="60" height="30" as="geometry" />
        </mxCell>
        <mxCell id="N5lV2D2xA5dcwzt4dY45-79" value="LinkList" style="text;html=1;align=center;verticalAlign=middle;whiteSpace=wrap;rounded=0;" vertex="1" parent="1">
          <mxGeometry x="94" y="240" width="60" height="30" as="geometry" />
        </mxCell>
        <mxCell id="N5lV2D2xA5dcwzt4dY45-80" value="LinkList" style="text;html=1;align=center;verticalAlign=middle;whiteSpace=wrap;rounded=0;" vertex="1" parent="1">
          <mxGeometry x="80" y="380" width="60" height="30" as="geometry" />
        </mxCell>
        <mxCell id="N5lV2D2xA5dcwzt4dY45-81" value="LinkList" style="text;html=1;align=center;verticalAlign=middle;whiteSpace=wrap;rounded=0;" vertex="1" parent="1">
          <mxGeometry x="80" y="526" width="60" height="30" as="geometry" />
        </mxCell>
        <mxCell id="N5lV2D2xA5dcwzt4dY45-82" value="&lt;div style=&quot;color: rgb(51, 51, 51); background-color: rgb(245, 245, 245); font-family: Menlo, Monaco, &amp;quot;Courier New&amp;quot;, monospace; line-height: 18px;&quot;&gt;&lt;font style=&quot;font-size: 22px;&quot;&gt;list_add_before&lt;/font&gt;&lt;/div&gt;" style="text;html=1;strokeColor=none;fillColor=none;align=center;verticalAlign=middle;whiteSpace=wrap;rounded=0;" vertex="1" parent="1">
          <mxGeometry x="570" y="145" width="60" height="30" as="geometry" />
        </mxCell>
      </root>
    </mxGraphModel>
  </diagram>
</mxfile>
